# xmcd
#
# Track frame offsets:
#	150
#	13744
#	25828
#	41101
#	54465
#	67851
#	81072
#	94164
#	105851
#	117506
#	129346
#	139941
#	153066
#	165575
#	176944
#	189207
#	200558
#	211207
#
# Disc length: 2962 seconds
#
# Revision: 1
# Processed by: cddbd v1.5.2PL0 Copyright (c) Steve Scherf et al.
# Submitted via: audiograbber 1.83.01
#
DISCID=ea0b9012
DTITLE=Patti Page - Geatest Hits Of All Time
DYEAR=1900
DGENRE=Country
TTITLE0=The Tennessee Waltz
TTITLE1=The Doggie In The Window
TTITLE2=I Went To Your Wedding
TTITLE3=Mockin' Bird Hill
TTITLE4=Changing Partners
TTITLE5=Go On With The Wedding
TTITLE6=Allegheny Moon
TTITLE7=Cross Over The Bridge
TTITLE8=Hush, Hush Sweet Charlotte
TTITLE9=Old Cape Cod
TTITLE10=Left Right Out Of You Heart (Hi Lee Hi  Lo Hi Lup Up Up)
TTITLE11=Mama From The Train
TTITLE12=Croce Di Oro (Cross Of Gold)
TTITLE13=Another Time, Another Place
TTITLE14=I'll Remember Today
TTITLE15=A Poor Man's Roses (Or A Rich Man's Gold)
TTITLE16=Longing To Hold You
TTITLE17=Can't Help Falling In Love
EXTD=SPARK 0019\nSpark Music
EXTT0=
EXTT1=
EXTT2=
EXTT3=
EXTT4=
EXTT5=
EXTT6=
EXTT7=
EXTT8=
EXTT9=
EXTT10=
EXTT11=
EXTT12=
EXTT13=
EXTT14=
EXTT15=
EXTT16=
EXTT17=
PLAYORDER=
